<svg xmlns="http://www.w3.org/2000/svg" viewBox="0 0 1200 1200" width="1200" height="1200" role="img" aria-label="타이타닉 대표 이미지 자리표시자">
  <rect width="1200" height="1200" fill="#F3F5F7"/>
  <g>
    <rect x="264" y="311" width="448" height="130" rx="16" fill="#AFBBD0"/>
    <rect x="264" y="311" width="448" height="112" rx="16" fill="#C6CEDC"/>
    <circle cx="320" cy="331" r="24" fill="#DEE2EA"/>
    <circle cx="432" cy="331" r="24" fill="#DEE2EA"/>
    <circle cx="544" cy="331" r="24" fill="#DEE2EA"/>
    <circle cx="656" cy="331" r="24" fill="#DEE2EA"/>
    <rect x="376" y="423" width="336" height="130" rx="16" fill="#AFBBD0"/>
    <rect x="376" y="423" width="336" height="112" rx="16" fill="#C6CEDC"/>
    <circle cx="432" cy="443" r="24" fill="#DEE2EA"/>
    <circle cx="544" cy="443" r="24" fill="#DEE2EA"/>
    <circle cx="656" cy="443" r="24" fill="#DEE2EA"/>
    <rect x="488" y="535" width="336" height="130" rx="16" fill="#AFBBD0"/>
    <rect x="488" y="535" width="336" height="112" rx="16" fill="#C6CEDC"/>
    <circle cx="544" cy="555" r="24" fill="#DEE2EA"/>
    <circle cx="656" cy="555" r="24" fill="#DEE2EA"/>
    <circle cx="768" cy="555" r="24" fill="#DEE2EA"/>
    <rect x="376" y="647" width="560" height="130" rx="16" fill="#AFBBD0"/>
    <rect x="376" y="647" width="560" height="112" rx="16" fill="#C6CEDC"/>
    <circle cx="432" cy="667" r="24" fill="#DEE2EA"/>
    <circle cx="544" cy="667" r="24" fill="#DEE2EA"/>
    <circle cx="656" cy="667" r="24" fill="#DEE2EA"/>
    <circle cx="768" cy="667" r="24" fill="#DEE2EA"/>
    <circle cx="880" cy="667" r="24" fill="#DEE2EA"/>
    <rect x="264" y="759" width="560" height="130" rx="16" fill="#AFBBD0"/>
    <rect x="264" y="759" width="560" height="112" rx="16" fill="#C6CEDC"/>
    <circle cx="320" cy="779" r="24" fill="#DEE2EA"/>
    <circle cx="432" cy="779" r="24" fill="#DEE2EA"/>
    <circle cx="544" cy="779" r="24" fill="#DEE2EA"/>
    <circle cx="656" cy="779" r="24" fill="#DEE2EA"/>
    <circle cx="768" cy="779" r="24" fill="#DEE2EA"/>
  </g>
</svg>
