<svg xmlns="http://www.w3.org/2000/svg" viewBox="0 0 64 64" fill="none">
  <rect width="64" height="64" rx="15" fill="#1d4ed8"/>
  <g transform="translate(8 13) scale(1.2)">
    <!-- 꼬리 플루크 -->
    <path d="M28.5 18.6C31.5 17.6 34 17 36.2 16.8C37.3 16.7 37.8 17.3 37.5 18.2C37.2 19.2 36.4 19.7 35.4 20.1C36.4 20.5 37.2 21 37.5 22C37.8 22.9 37.3 23.5 36.2 23.4C34 23.2 31.5 22.6 28.5 21.6Z" fill="#bcd0fe"/>
    <!-- 몸통 -->
    <path d="M5 21C5 15.5 9.5 13 16 13L26.5 13C30 13 32.5 15.5 32.5 19.5C32.5 24.5 28 28.5 19.5 28.5C10 28.5 5 26 5 21Z" fill="#ffffff"/>
    <!-- 입(미소) -->
    <path d="M4.8 22.4C6 23.9 8 24.1 9.6 23.1" stroke="#1b2f66" stroke-width="0.9" stroke-linecap="round" opacity="0.35" fill="none"/>
    <!-- 분수 -->
    <g stroke="#facc15" stroke-width="1.6" stroke-linecap="round" fill="none">
      <path d="M7.6 11.6C7.2 8.8 6.6 6.9 5.7 5.3"/>
      <path d="M8.7 11.6C8.7 9 8.7 6.8 8.7 5"/>
      <path d="M9.7 11.8C10.3 9 11.1 7 12 5.7"/>
    </g>
    <circle cx="5.5" cy="4.9" r="0.9" fill="#facc15"/>
    <circle cx="8.7" cy="4.6" r="0.9" fill="#facc15"/>
    <circle cx="12.2" cy="5.4" r="0.9" fill="#facc15"/>
    <!-- 브릭 스터드 3개 -->
    <ellipse cx="13" cy="12.2" rx="2.2" ry="1.05" fill="#facc15"/>
    <ellipse cx="13" cy="11.5" rx="2.2" ry="1.05" fill="#fde047"/>
    <ellipse cx="18.5" cy="12.2" rx="2.2" ry="1.05" fill="#facc15"/>
    <ellipse cx="18.5" cy="11.5" rx="2.2" ry="1.05" fill="#fde047"/>
    <ellipse cx="24" cy="12.2" rx="2.2" ry="1.05" fill="#facc15"/>
    <ellipse cx="24" cy="11.5" rx="2.2" ry="1.05" fill="#fde047"/>
    <!-- 눈 -->
    <circle cx="9.5" cy="19.8" r="1.6" fill="#1b2f66"/>
  </g>
</svg>
